<svg width="100" height="100" viewBox="0 0 21 20" fill="none" xmlns="http://www.w3.org/2000/svg">
    <defs>
        <linearGradient id="starGradient" x1="0%" y1="0%" x2="0%" y2="100%">
            <stop offset="0%" style="stop-color:#ffffffff;stop-opacity:1" />
            <stop offset="100%" style="stop-color:#fff9;stop-opacity:1" />
        </linearGradient>
    </defs>
    <path d="M9.57083 1.54022C9.80807 1.05959 9.9267 0.819268 10.0877 0.742486C10.2278 0.675682 10.3906 0.675682 10.5307 0.742486C10.6918 0.819268 10.8104 1.05959 11.0476 1.54022L13.2985 6.10014C13.3685 6.24204 13.4035 6.31299 13.4547 6.36807C13.5 6.41684 13.5544 6.45636 13.6147 6.48443C13.6829 6.51614 13.7612 6.52758 13.9178 6.55047L18.9525 7.28637C19.4827 7.36387 19.7478 7.40261 19.8705 7.53211C19.9772 7.64477 20.0274 7.79959 20.0071 7.95345C19.9838 8.1303 19.7918 8.31722 19.408 8.69108L15.7662 12.2382C15.6527 12.3488 15.5959 12.4041 15.5593 12.4699C15.5268 12.5281 15.506 12.5921 15.498 12.6583C15.4889 12.733 15.5023 12.8111 15.5291 12.9673L16.3884 17.9775C16.4791 18.5059 16.5244 18.7701 16.4392 18.9269C16.3651 19.0633 16.2334 19.159 16.0808 19.1873C15.9053 19.2198 15.6681 19.0951 15.1935 18.8455L10.6925 16.4785C10.5523 16.4047 10.4822 16.3678 10.4083 16.3533C10.3429 16.3405 10.2756 16.3405 10.2102 16.3533C10.1363 16.3678 10.0662 16.4047 9.92595 16.4785L5.42495 18.8455C4.95041 19.0951 4.71315 19.2198 4.53771 19.1873C4.38507 19.159 4.25336 19.0633 4.17926 18.9269C4.0941 18.7701 4.13941 18.5059 4.23004 17.9775L5.08934 12.9673C5.11613 12.8111 5.12953 12.733 5.12047 12.6583C5.11244 12.5921 5.09164 12.5281 5.05921 12.4699C5.02258 12.4041 4.96581 12.3488 4.85229 12.2382L1.21047 8.69108C0.826639 8.31722 0.634721 8.1303 0.611367 7.95345C0.591048 7.79959 0.641246 7.64477 0.747985 7.53211C0.870666 7.40261 1.13576 7.36387 1.66594 7.28637L6.70069 6.55047C6.85727 6.52758 6.93555 6.51614 7.00373 6.48443C7.0641 6.45636 7.11845 6.41684 7.16376 6.36807C7.21494 6.31299 7.24996 6.24204 7.32 6.10014L9.57083 1.54022Z"
          fill="url(#starGradient)"/>
</svg>